<svg aria-hidden="true" style="position:absolute;width:0;height:0" xmlns="http://www.w3.org/2000/svg" overflow="hidden">
  <defs>
<symbol id="currency_mob" width="280" height="93" viewBox="0 0 280 93" fill="none">
<path d="M22.4 38.5645L0 61.8797V73C0 84.0457 8.95431 93 20 93H250C266.569 93 280 79.5686 280 63V20.1766C278.98 19.5416 277.495 19.3295 276.864 19.2798C271.954 18.8929 269.138 22.5841 265.216 26.0053L265.167 26.0478C264.008 27.06 261.108 29.5923 255.808 29.5923C250.432 29.5923 246.699 27.201 245.504 26.0053L227.584 7.17389C225.195 4.78259 219.968 0 214.144 0C208.32 0 203.691 4.78259 201.6 7.17389L118.72 87.4366C117.376 88.9312 113.254 91.9203 107.52 91.9203C101.786 91.9203 97.664 88.9312 96.32 87.4366L48.384 36.3227C46.7413 34.5292 41.9328 30.9423 35.84 30.9423C29.7472 30.9423 24.3413 36.0238 22.4 38.5645Z" fill="url(#paint0_linear_7_131)" fill-opacity="0.2"/>
<defs>
<linearGradient id="paint0_linear_7_131" x1="140" y1="-8.06575" x2="140" y2="108.081" gradientUnits="userSpaceOnUse">
<stop stop-color="white"/>
<stop offset="1" stop-color="white" stop-opacity="0"/>
</linearGradient>
</defs>
</symbol>

<symbol id="currency_tab" width="336" height="119" viewBox="0 0 336 119" fill="none" >
<path d="M26.88 49.346L0 79.1794V99C0 110.046 8.95431 119 20 119H306C322.569 119 336 105.569 336 89V25.8173C334.776 25.0049 332.993 24.7335 332.237 24.6699C326.345 24.1747 322.966 28.8979 318.259 33.2757L318.201 33.33C316.81 34.6252 313.33 37.8654 306.97 37.8654C300.518 37.8654 296.038 34.8056 294.605 33.2757L273.101 9.17949C270.234 6.11966 263.962 0 256.973 0C249.984 0 244.429 6.11966 241.92 9.17949L142.464 111.881C140.851 113.794 135.905 117.618 129.024 117.618C122.143 117.618 117.197 113.794 115.584 111.881L58.0608 46.4774C56.0896 44.1825 50.3194 39.5928 43.008 39.5928C35.6966 39.5928 29.2096 46.0949 26.88 49.346Z" fill="url(#paint0_linear_5_2750)" fill-opacity="0.2"/>
<defs>
<linearGradient id="paint0_linear_5_2750" x1="168" y1="-10.3207" x2="168" y2="138.297" gradientUnits="userSpaceOnUse">
<stop stop-color="white"/>
<stop offset="1" stop-color="white" stop-opacity="0"/>
</linearGradient>
</defs>
</symbol>

<symbol id="currency_desk"  viewBox="0 0 393 134" fill="none">
<path d="M31.44 47.8127L0 76.719V114C0 125.046 8.9543 134 20 134H363C379.569 134 393 120.569 393 104V25.0151C391.568 24.2279 389.483 23.9649 388.598 23.9033C381.707 23.4236 377.754 28 372.25 32.2417L372.181 32.2944C370.554 33.5494 366.484 36.6888 359.045 36.6888C351.499 36.6888 346.259 33.7241 344.582 32.2417L319.43 8.89426C316.077 5.92951 308.741 0 300.566 0C292.392 0 285.894 5.92951 282.96 8.89426L166.632 108.405C164.746 110.258 158.961 113.964 150.912 113.964C142.863 113.964 137.078 110.258 135.192 108.405L67.9104 45.0332C65.6048 42.8097 58.8557 38.3625 50.304 38.3625C41.7523 38.3625 34.1648 44.6626 31.44 47.8127Z" fill="url(#paint0_linear_4_436)" fill-opacity="0.2"/>
<defs>
<linearGradient id="paint0_linear_4_436" x1="196.5" y1="-10" x2="196.5" y2="134" gradientUnits="userSpaceOnUse">
<stop stop-color="white"/>
<stop offset="1" stop-color="white" stop-opacity="0"/>
</linearGradient>
</defs>
</symbol>

    <symbol id="icon-wallet" viewBox="0 0 32 32">
      <path fill="#24cca7" style="fill: var(--color1, #24cca7)" d="M3.755 7.619l16.211-4.537-0.859-1.779c-0.562-1.157-1.932-1.634-3.060-1.058l-14.513 7.375h2.219z"></path>
      <path fill="#24cca7" style="fill: var(--color1, #24cca7)" d="M24.813 3.048c-0.195 0-0.391 0.029-0.586 0.087l-15.012 4.484h18.431l-0.693-2.779c-0.266-1.083-1.163-1.793-2.14-1.793z"></path>
      <path fill="#4a56e2" style="fill: var(--color2, #4a56e2)" d="M28.36 8.573h-26.559c-0.568 0-1.074 0.26-1.405 0.67-0.151 0.189-0.266 0.406-0.331 0.645-0.040 0.15-0.065 0.307-0.065 0.467v19.862c0 0.984 0.805 1.783 1.797 1.783h26.559c0.992 0 1.797-0.799 1.797-1.783v-4.973h-10.662c-1.685 0-3.054-1.358-3.054-3.030v-3.964c0-0.82 0.331-1.565 0.866-2.111 0.474-0.485 1.11-0.813 1.822-0.895 0.119-0.014 0.241-0.021 0.363-0.021h10.666v-4.867c0.004-0.984-0.801-1.783-1.793-1.783z"></path>
      <path fill="#4a56e2" style="fill: var(--color2, #4a56e2)" d="M31.414 16.926c-0.18-0.164-0.392-0.289-0.629-0.371-0.183-0.061-0.377-0.096-0.582-0.096h-10.712c-0.992 0-1.797 0.799-1.797 1.783v3.968c0 0.984 0.805 1.783 1.797 1.783h10.712c0.205 0 0.399-0.036 0.582-0.096 0.237-0.078 0.449-0.207 0.629-0.371 0.359-0.324 0.586-0.795 0.586-1.316v-3.968c0-0.52-0.226-0.991-0.586-1.316zM23.243 20.581c0 0.492-0.402 0.891-0.898 0.891h-0.596c-0.496 0-0.898-0.399-0.898-0.891v-0.592c0-0.285 0.133-0.538 0.345-0.699 0.155-0.118 0.345-0.193 0.553-0.193h0.596c0.496 0 0.898 0.399 0.898 0.891v0.592z"></path>
    </symbol>

<symbol id="ellipse" xmlns="http://www.w3.org/2000/svg" viewBox="0 0 636 502">
  <path d="M566.671 362.925c-76.793 130.63-234.235 160.352-372.584 125.209C34.667 439.813-30.538 270.69 14.984 120.504 57.217-18.828 223.082 19.358 360.438 3.496 614.794-23.81 713.649 131.918 566.671 362.925Z"/>
</symbol>


  </defs>
</svg>