<svg aria-hidden="true" style="position:absolute;width:0;height:0" xmlns="http://www.w3.org/2000/svg" overflow="hidden">
  <defs>
<symbol id="icon-e-mail" viewBox="0 0 42 32">
<path fill="#e0e0e0" style="fill: var(--color1, #e0e0e0)" d="M37 0h-32c-2.2 0-3.98 1.8-3.98 4l-0.020 24c0 2.2 1.8 4 4 4h32c2.2 0 4-1.8 4-4v-24c0-2.2-1.8-4-4-4zM37 8l-16 10-16-10v-4l16 10 16-10v4z"></path>
</symbol>

<symbol id="icon-user" viewBox="0 0 34 32">
<path fill="#e0e0e0" style="fill: var(--color1, #e0e0e0)" d="M0.889 3.556v24.889c0 1.956 1.582 3.556 3.556 3.556h24.889c1.956 0 3.556-1.6 3.556-3.556v-24.889c0-1.956-1.6-3.556-3.556-3.556h-24.889c-1.973 0-3.556 1.6-3.556 3.556zM22.222 10.667c0 2.951-2.382 5.333-5.333 5.333s-5.333-2.382-5.333-5.333c0-2.951 2.382-5.333 5.333-5.333s5.333 2.382 5.333 5.333zM6.222 24.889c0-3.556 7.111-5.511 10.667-5.511s10.667 1.956 10.667 5.511v1.778h-21.333v-1.778z"></path>
</symbol>

<symbol id="icon-password" viewBox="0 0 26 32">
<path fill="#e0e0e0" style="fill: var(--color1, #e0e0e0)" d="M22.095 10.667h-1.524v-3.048c0-4.206-3.413-7.619-7.619-7.619s-7.619 3.413-7.619 7.619v3.048h-1.524c-1.676 0-3.048 1.371-3.048 3.048v15.238c0 1.676 1.371 3.048 3.048 3.048h18.286c1.676 0 3.048-1.371 3.048-3.048v-15.238c0-1.676-1.371-3.048-3.048-3.048zM12.952 24.381c-1.676 0-3.048-1.371-3.048-3.048s1.371-3.048 3.048-3.048c1.676 0 3.048 1.371 3.048 3.048s-1.371 3.048-3.048 3.048zM17.676 10.667h-9.448v-3.048c0-2.606 2.118-4.724 4.724-4.724s4.724 2.118 4.724 4.724v3.048z"></path>
</symbol>

<symbol id="icon-logo-form" viewBox="0 0 128 32">
<path fill="#24cca7" style="fill: var(--color1, #24cca7)" d="M3.755 7.619l16.211-4.537-0.858-1.779c-0.562-1.157-1.932-1.634-3.060-1.058l-14.513 7.375h2.219z"></path>
<path fill="#24cca7" style="fill: var(--color1, #24cca7)" d="M24.813 3.048c-0.195 0-0.391 0.029-0.586 0.087l-15.012 4.484h18.431l-0.693-2.779c-0.266-1.083-1.163-1.793-2.14-1.793z"></path>
<path fill="#4a56e2" style="fill: var(--color2, #4a56e2)" d="M28.36 8.573h-26.559c-0.568 0-1.074 0.26-1.405 0.67-0.151 0.189-0.266 0.406-0.331 0.645-0.040 0.15-0.065 0.307-0.065 0.467v19.862c0 0.984 0.805 1.783 1.797 1.783h26.559c0.992 0 1.797-0.799 1.797-1.783v-4.973h-10.662c-1.685 0-3.055-1.358-3.055-3.030v-3.964c0-0.82 0.331-1.565 0.866-2.111 0.474-0.485 1.11-0.813 1.822-0.895 0.119-0.014 0.241-0.021 0.363-0.021h10.665v-4.867c0.004-0.984-0.801-1.783-1.793-1.783z"></path>
<path fill="#4a56e2" style="fill: var(--color2, #4a56e2)" d="M31.414 16.926c-0.18-0.164-0.392-0.289-0.629-0.371-0.183-0.061-0.377-0.096-0.582-0.096h-10.712c-0.992 0-1.797 0.799-1.797 1.783v3.968c0 0.984 0.805 1.783 1.797 1.783h10.712c0.205 0 0.399-0.036 0.582-0.096 0.237-0.078 0.449-0.207 0.629-0.371 0.359-0.324 0.586-0.795 0.586-1.316v-3.968c0-0.521-0.226-0.991-0.586-1.316zM23.243 20.58c0 0.492-0.402 0.891-0.898 0.891h-0.596c-0.496 0-0.898-0.399-0.898-0.891v-0.592c0-0.285 0.133-0.538 0.345-0.699 0.154-0.118 0.345-0.193 0.553-0.193h0.596c0.496 0 0.898 0.399 0.898 0.891v0.592z"></path>
<path fill="#000" style="fill: var(--color3, #000)" d="M72.672 7.952l-4.392 16.848h-4.968l-2.688-11.088-2.784 11.088h-4.968l-4.272-16.848h4.392l2.424 12.264 3-12.264h4.512l2.88 12.264 2.448-12.264h4.416z"></path>
<path fill="#000" style="fill: var(--color3, #000)" d="M73.914 18.080c0-1.376 0.256-2.584 0.768-3.624 0.528-1.040 1.24-1.84 2.136-2.4s1.896-0.84 3-0.84c0.944 0 1.768 0.192 2.472 0.576 0.72 0.384 1.272 0.888 1.656 1.512v-1.896h4.104v13.392h-4.104v-1.896c-0.4 0.624-0.96 1.128-1.68 1.512-0.704 0.384-1.528 0.576-2.472 0.576-1.088 0-2.080-0.28-2.976-0.84-0.896-0.576-1.608-1.384-2.136-2.424-0.512-1.056-0.768-2.272-0.768-3.648zM83.946 18.104c0-1.024-0.288-1.832-0.864-2.424-0.56-0.592-1.248-0.888-2.064-0.888s-1.512 0.296-2.088 0.888c-0.56 0.576-0.84 1.376-0.84 2.4s0.28 1.84 0.84 2.448c0.576 0.592 1.272 0.888 2.088 0.888s1.504-0.296 2.064-0.888c0.576-0.592 0.864-1.4 0.864-2.424z"></path>
<path fill="#000" style="fill: var(--color3, #000)" d="M95.123 7.040v17.76h-4.104v-17.76h4.104z"></path>
<path fill="#000" style="fill: var(--color3, #000)" d="M102.201 7.040v17.76h-4.104v-17.76h4.104z"></path>
<path fill="#000" style="fill: var(--color3, #000)" d="M117.799 17.888c0 0.384-0.023 0.784-0.071 1.2h-9.289c0.064 0.832 0.329 1.472 0.793 1.92 0.48 0.432 1.063 0.648 1.751 0.648 1.024 0 1.737-0.432 2.137-1.296h4.368c-0.224 0.88-0.633 1.672-1.225 2.376-0.576 0.704-1.303 1.256-2.183 1.656s-1.865 0.6-2.953 0.6c-1.312 0-2.48-0.28-3.504-0.84s-1.824-1.36-2.4-2.4c-0.576-1.040-0.864-2.256-0.864-3.648s0.28-2.608 0.84-3.648c0.576-1.040 1.376-1.84 2.401-2.4s2.199-0.84 3.527-0.84c1.296 0 2.448 0.272 3.456 0.816s1.792 1.32 2.352 2.328c0.576 1.008 0.864 2.184 0.864 3.528zM113.6 16.808c0-0.704-0.24-1.264-0.72-1.68s-1.081-0.624-1.801-0.624c-0.688 0-1.271 0.2-1.751 0.6-0.464 0.4-0.752 0.968-0.864 1.704h5.136z"></path>
<path fill="#000" style="fill: var(--color3, #000)" d="M127.428 21.32v3.48h-2.087c-1.488 0-2.649-0.36-3.481-1.080-0.832-0.736-1.248-1.928-1.248-3.576v-5.328h-1.632v-3.408h1.632v-3.264h4.105v3.264h2.688v3.408h-2.688v5.376c0 0.4 0.096 0.688 0.288 0.864s0.512 0.264 0.96 0.264h1.463z"></path>
</symbol>

  </defs>
</svg>