<svg width="336" height="119" viewBox="0 0 336 119" fill="none" xmlns="http://www.w3.org/2000/svg">
<path d="M26.88 49.346L0 79.1794V99C0 110.046 8.95431 119 20 119H306C322.569 119 336 105.569 336 89V25.8173C334.776 25.0049 332.993 24.7335 332.237 24.6699C326.345 24.1747 322.966 28.8979 318.259 33.2757L318.201 33.33C316.81 34.6252 313.33 37.8654 306.97 37.8654C300.518 37.8654 296.038 34.8056 294.605 33.2757L273.101 9.17949C270.234 6.11966 263.962 0 256.973 0C249.984 0 244.429 6.11966 241.92 9.17949L142.464 111.881C140.851 113.794 135.905 117.618 129.024 117.618C122.143 117.618 117.197 113.794 115.584 111.881L58.0608 46.4774C56.0896 44.1825 50.3194 39.5928 43.008 39.5928C35.6966 39.5928 29.2096 46.0949 26.88 49.346Z" fill="url(#paint0_linear_5_2750)" fill-opacity="0.2"/>
<defs>
<linearGradient id="paint0_linear_5_2750" x1="168" y1="-10.3207" x2="168" y2="138.297" gradientUnits="userSpaceOnUse">
<stop stop-color="white"/>
<stop offset="1" stop-color="white" stop-opacity="0"/>
</linearGradient>
</defs>
</svg>
